<svg width="24" height="24" viewBox="0 0 24 24" fill="none" xmlns="http://www.w3.org/2000/svg">
<path d="M0 0H3.42857V3.42857H0V0ZM6.85714 6.85714H3.42857V3.42857H6.85714V6.85714ZM10.2857 10.2857H6.85714V6.85714H10.2857V10.2857ZM13.7143 10.2857H10.2857V13.7143H6.85714V17.1429H3.42857V20.5714H0V24H3.42857V20.5714H6.85714V17.1429H10.2857V13.7143H13.7143V17.1429H17.1429V20.5714H20.5714V24H24V20.5714H20.5714V17.1429H17.1429V13.7143H13.7143V10.2857ZM17.1429 6.85714V10.2857H13.7143V6.85714H17.1429ZM20.5714 3.42857V6.85714H17.1429V3.42857H20.5714ZM20.5714 3.42857V0H24V3.42857H20.5714Z" fill="white"/>
</svg>
