<svg width="25" height="25" viewBox="0 0 25 25" fill="none" xmlns="http://www.w3.org/2000/svg">
<path d="M14.0083 0.404297H11.3416V3.07096H14.0083V0.404297ZM19.3416 3.07096H22.0083V5.73763H19.3416V3.07096ZM11.3416 11.071H14.0083V13.7376H11.3416V11.071ZM0.674957 11.071H3.34162V13.7376H0.674957V11.071ZM24.675 11.071H22.0083V13.7376H24.675V11.071ZM3.34162 3.07096H6.00829V5.73763H3.34162V3.07096ZM22.0083 21.7376H19.3416V19.071H22.0083V21.7376ZM11.3416 24.4043H14.0083V21.7376H11.3416V24.4043ZM6.00829 21.7376H3.34162V19.071H6.00829V21.7376ZM8.67496 5.73763H16.675V8.4043H8.67496V5.73763ZM8.67496 16.4043H6.00829V8.4043H8.67496V16.4043ZM8.67496 16.4043V19.071H16.675V16.4043H19.3416V8.4043H16.675V16.4043H8.67496Z" fill="white"/>
</svg>
