<svg width="25" height="20" viewBox="0 0 25 20" fill="none" xmlns="http://www.w3.org/2000/svg">
<path d="M11.3333 0H5.33334V2H3.33334V8H5.33334V10H11.3333V8H5.33334V2H11.3333V0ZM11.3333 2H13.3333V8H11.3333V2ZM0.333344 14H2.33334V18H14.3333V20H0.333344V14ZM2.33334 14H14.3333V12H2.33334V14ZM16.3333 14H14.3333V20H16.3333V14ZM15.3333 0H19.3333V2H15.3333V0ZM19.3333 8H15.3333V10H19.3333V8ZM19.3333 2H21.3333V8H19.3333V2ZM24.3333 14H22.3333V18H18.3333V20H24.3333V14ZM18.3333 12H22.3333V14H18.3333V12Z" fill="white"/>
</svg>
