<svg width="24" height="23" viewBox="0 0 24 23" fill="none" xmlns="http://www.w3.org/2000/svg">
<path d="M8.72727 0.199219H4.36364V2.38104H2.18182V4.56286H0V11.1083H2.18182V13.2901H4.36364V15.4719H6.54545V17.6538H8.72727V19.8356H10.9091V22.0174H13.0909V19.8356H15.2727V17.6538H17.4545V15.4719H19.6364V13.2901H21.8182V11.1083H24V4.56286H21.8182V2.38104H19.6364V0.199219H15.2727V2.38104H13.0909V4.56286H10.9091V2.38104H8.72727V0.199219ZM8.72727 2.38104V4.56286H10.9091V6.74467H13.0909V4.56286H15.2727V2.38104H19.6364V4.56286H21.8182V11.1083H19.6364V13.2901H17.4545V15.4719H15.2727V17.6538H13.0909V19.8356H10.9091V17.6538H8.72727V15.4719H6.54545V13.2901H4.36364V11.1083H2.18182V4.56286H4.36364V2.38104H8.72727Z" fill="white"/>
</svg>
